<svg viewBox="0 0 250 250">
    <g class="follow">
        <path
            d="M125.008234,142.930525 C125.071545,153.44268 118.88164,162.691266 109.584252,167.593861 C94.6416914,175.470723 77.6600103,173.282559 77.6600103,173.282559 L77.6600103,152.655258 L84.4408121,152.655258 C90.0424586,152.655258 94.2684241,151.150318 97.1213466,148.137801 C99.971631,145.127922 101.397433,140.110577 101.397433,133.084447 L101.397433,63.3758009 L125.142769,49.6598784 L124.991088,138.504077 C124.991088,139.588266 124.997683,141.147284 125.008234,142.930525 Z"
            class="j-follow-c" stroke="#DD07F4"></path>
        <polygon class="j-follow-b3" stroke="#4407F4"
            points="172.625 77.1381509 148.879664 90.8540733 101.396905 63.3760647 125.142241 49.6601422"></polygon>
        <polygon class="j-follow-b2" stroke="#4407F4"
            points="125.142241 180.133398 125.142241 200.7607 77.6594828 173.282691 77.6594828 152.65539"></polygon>
        <path
            d="M131.923834,180.133398 C137.525481,180.133398 141.751447,178.628459 144.604369,175.615941 C147.453334,172.606062 148.879136,167.588717 148.879136,160.562588 L148.879136,90.8539414 L101.396378,63.3759328 L101.396378,133.084579 C101.396378,140.110709 99.9705759,145.128053 97.1216103,148.137933 C94.2686879,151.15045 90.0427224,152.65539 84.4410759,152.65539 L77.6589552,152.65539 L125.141714,180.133398 L131.923834,180.133398 Z"
            class="j-follow-b1" stroke="#4407F4"></path>
        <path
            d="M172.490993,170.409193 C172.554303,180.921348 166.364398,190.169934 157.06701,195.072529 C142.12445,202.949391 125.142769,200.759909 125.142769,200.759909 L125.142769,180.133926 L131.923571,180.133926 C137.525217,180.133926 141.751183,178.627667 144.604105,175.616469 C147.45439,172.60659 148.880191,167.589245 148.880191,160.561797 L148.880191,90.854469 L172.625528,77.1385466 L172.473847,165.982745 C172.473847,167.065616 172.480441,168.624633 172.490993,170.409193 Z"
            class="j-follow-a" stroke="#4407F4"></path>
    </g>
    <g class="start">
        <path
            d="M125.008234,142.930525 C125.071545,153.44268 118.88164,162.691266 109.584252,167.593861 C94.6416914,175.470723 77.6600103,173.282559 77.6600103,173.282559 L77.6600103,152.655258 L84.4408121,152.655258 C90.0424586,152.655258 94.2684241,151.150318 97.1213466,148.137801 C99.971631,145.127922 101.397433,140.110577 101.397433,133.084447 L101.397433,63.3758009 L125.142769,49.6598784 L124.991088,138.504077 C124.991088,139.588266 124.997683,141.147284 125.008234,142.930525 Z"
            class="j-start-c" stroke="#8A9EA3"></path>
        <polygon class="j-start-b3" stroke="#F9C99B"
            points="172.625 77.1381509 148.879664 90.8540733 101.396905 63.3760647 125.142241 49.6601422"></polygon>
        <polygon class="j-start-b2" stroke="#F9C99B"
            points="125.142241 180.133398 125.142241 200.7607 77.6594828 173.282691 77.6594828 152.65539"></polygon>
        <path
            d="M131.923834,180.133398 C137.525481,180.133398 141.751447,178.628459 144.604369,175.615941 C147.453334,172.606062 148.879136,167.588717 148.879136,160.562588 L148.879136,90.8539414 L101.396378,63.3759328 L101.396378,133.084579 C101.396378,140.110709 99.9705759,145.128053 97.1216103,148.137933 C94.2686879,151.15045 90.0427224,152.65539 84.4410759,152.65539 L77.6589552,152.65539 L125.141714,180.133398 L131.923834,180.133398 Z"
            class="j-start-b1" stroke="#F9C99B"></path>
        <path
            d="M172.490993,170.409193 C172.554303,180.921348 166.364398,190.169934 157.06701,195.072529 C142.12445,202.949391 125.142769,200.759909 125.142769,200.759909 L125.142769,180.133926 L131.923571,180.133926 C137.525217,180.133926 141.751183,178.627667 144.604105,175.616469 C147.45439,172.60659 148.880191,167.589245 148.880191,160.561797 L148.880191,90.854469 L172.625528,77.1385466 L172.473847,165.982745 C172.473847,167.065616 172.480441,168.624633 172.490993,170.409193 Z"
            class="j-start-a" stroke="#F9C99B"></path>
    </g>
</svg>